# xmcd
#
# Track frame offsets: 
#        150
#        10153
#        24998
#        35771
#        50915
#        65050
#        81518
#        93212
#        103759
#        131750
#        147310
#        159943
#        177221
#        198558
#
# Disc length: 2787 seconds
#
# Revision: 0
# Processed by: cddbd v1.5.2PL0 Copyright (c) Steve Scherf et al.
# Submitted via: ExactAudioCopy v0.99pb3
#
DISCID=c50ae10e
DTITLE=Billy Lee Riley With The Bellhops - Still Got My Mojo!
DYEAR=2009
DGENRE=Rockabilly
TTITLE0=Havin' A Whole Lot Of Fun
TTITLE1=Worried 'bout You Baby
TTITLE2=No Naggin' No Draggin'
TTITLE3=Crazy Me
TTITLE4=Mojo Man
TTITLE5=Ballin' The Jack
TTITLE6=Have Mercy Miss Percy
TTITLE7=Don't Start Me Crying Now
TTITLE8=Rooster Blues
TTITLE9=Kiss Me Baby
TTITLE10=I Hear You Knockin'
TTITLE11=Loud Mouth Lucy
TTITLE12=Song Wine and Women
TTITLE13=Not Meant To Be
EXTD=
EXTT0=
EXTT1=
EXTT2=
EXTT3=
EXTT4=
EXTT5=
EXTT6=
EXTT7=
EXTT8=
EXTT9=
EXTT10=
EXTT11=
EXTT12=
EXTT13=
PLAYORDER=
